<?xml version="1.0" encoding="UTF-8" standalone="no"?>
<!-- Created with Inkscape (http://www.inkscape.org/) -->

<svg
   xmlns:dc="http://purl.org/dc/elements/1.1/"
   xmlns:cc="http://creativecommons.org/ns#"
   xmlns:rdf="http://www.w3.org/1999/02/22-rdf-syntax-ns#"
   xmlns:svg="http://www.w3.org/2000/svg"
   xmlns="http://www.w3.org/2000/svg"
   xmlns:sodipodi="http://sodipodi.sourceforge.net/DTD/sodipodi-0.dtd"
   xmlns:inkscape="http://www.inkscape.org/namespaces/inkscape"
   id="svg2985"
   version="1.1"
   inkscape:version="0.48.2 r9819"
   width="204"
   height="204"
   sodipodi:docname="zzz ombrello.jpg">
  <metadata
     id="metadata2991">
    <rdf:RDF>
      <cc:Work
         rdf:about="">
        <dc:format>image/svg+xml</dc:format>
        <dc:type
           rdf:resource="http://purl.org/dc/dcmitype/StillImage" />
        <dc:title></dc:title>
      </cc:Work>
    </rdf:RDF>
  </metadata>
  <defs
     id="defs2989" />
  <sodipodi:namedview
     pagecolor="#ffffff"
     bordercolor="#666666"
     borderopacity="1"
     objecttolerance="10"
     gridtolerance="10"
     guidetolerance="10"
     inkscape:pageopacity="0"
     inkscape:pageshadow="2"
     inkscape:window-width="1366"
     inkscape:window-height="716"
     id="namedview2987"
     showgrid="false"
     inkscape:zoom="1.2916667"
     inkscape:cx="45.86503"
     inkscape:cy="87.855259"
     inkscape:window-x="-8"
     inkscape:window-y="-8"
     inkscape:window-maximized="1"
     inkscape:current-layer="svg2985" />
  <path
     style="fill:#000000;stroke:#ffffff;stroke-width:1.03657115px;stroke-linecap:butt;stroke-linejoin:miter;stroke-opacity:1"
     d="m 135.31992,126.21098 c 0.82004,1.912 2.12823,3.21244 3.67632,4.65322 13.85762,12.89706 6.63213,14.09652 -11.76421,14.09652 -1.52442,0 -7.66213,0.35329 -8.23495,-1.77917 -2.58055,-9.60668 11.38733,-12.2731 15.58758,-16.83371"
     id="path3797"
     inkscape:connector-curvature="0" />
  <path
     style="opacity:1;fill:#000000;stroke:#ffffff;stroke-width:1px;stroke-linecap:butt;stroke-linejoin:miter;stroke-opacity:1"
     d="m 48.774194,82.064516 c -5.085467,15.088698 -20.903226,30.067164 -22.064516,47.612904 -1.006743,15.2107 -8.410478,43.07339 0.774193,52.25806 5.927236,5.92724 38.44813,3.09678 46.451613,3.09678 5.767494,0 18.049061,1.94655 24.387096,2.32258 27.23121,1.6156 57.61857,-9.06735 72.77419,-16.64516 5.67531,-2.83765 20.7994,-16.07862 16.25807,-25.16129 -10.77613,-21.55225 -96.655758,4.07895 -114.967743,-8.12904 -2.364596,-1.57639 -2.309436,-9.70407 -1.935484,-12.38709 5.764585,-41.359617 14.953659,-31.332859 31.354837,-42.967744 3.18586,-2.260028 7.02629,-7.593969 3.47188,-15.487906 -1.21542,-2.699311 -4.15866,-5.104904 -1.56502,-9.518774 4.1169,-7.006177 1.33308,-13.559834 1.18992,-13.702997 C 73.518636,11.969903 60.924996,24.472589 51.483871,53.806451 48.945928,61.691917 52.621436,73.40822 48.774194,82.064516 z"
     id="path3013"
     inkscape:connector-curvature="0"
     sodipodi:nodetypes="csssssssssssssc" />
  <path
     style="fill:#000000;fill-opacity:1;stroke:#feffff;stroke-width:1px;stroke-linecap:butt;stroke-linejoin:miter;stroke-opacity:1"
     d="M 133.74194,123.29032 C 123.39725,108.49213 109.41964,101.34581 97.182365,105.03727 84.39696,108.89408 65.519352,122.04048 62.090127,136.19735 59.424652,147.20123 84.110539,124.09009 82.318782,127.10863 79.893374,131.19467 49.249847,152.56372 60,154.45161 c 5.263869,0.92442 30.508303,-18.45944 30,-18.96774 -0.394836,-0.39484 -27.63314,25.8096 -27.677419,30.58065 -0.116331,12.53453 28.564229,-17.47567 37.354839,-21.87097 5.94813,-2.97407 -23.925025,21.23189 -23.806452,25.74193 0.303106,11.52892 66.839902,-35.80111 57.870972,-46.64516 z"
     id="path3015"
     inkscape:connector-curvature="0"
     sodipodi:nodetypes="cssssssssc" />
  <path
     style="fill:none;stroke:#ffffff;stroke-width:1px;stroke-linecap:butt;stroke-linejoin:miter;stroke-opacity:1"
     d="m 84.774194,49.935484 c -3.507346,30.291571 2.519403,12.988883 25.354836,10.451613"
     id="path3795"
     inkscape:connector-curvature="0" />
</svg>
